<?xml version="1.0" encoding="iso-8859-1"?>
<!-- Uploaded to: SVG Repo, www.svgrepo.com, Generator: SVG Repo Mixer Tools -->
<svg height="800px" width="800px" version="1.1" id="Layer_1" xmlns="http://www.w3.org/2000/svg" xmlns:xlink="http://www.w3.org/1999/xlink" 
	 viewBox="0 0 511.999 511.999" xml:space="preserve">
<path style="fill:#2C3E50;" d="M256.014,173.571c-7.267,0-14.328-3.793-18.185-10.558L168.402,41.231
	c-5.72-10.033-2.223-22.802,7.811-28.521c10.029-5.718,22.8-2.225,28.521,7.809l69.427,121.784
	C282.141,156.301,271.906,173.571,256.014,173.571z"/>
<path style="fill:#20B8AE;" d="M226.552,130.658c-7.232-1.929-12.882-7.579-14.813-14.81
	c-18.221-68.269,44.3-130.884,112.642-112.645c7.234,1.931,12.882,7.579,14.813,14.811
	C357.317,85.92,295.267,148.999,226.552,130.658z"/>
<path style="fill:#1DA49C;" d="M339.194,18.015c-1.931-7.232-7.581-12.881-14.813-14.811c-23.267-6.21-47.815-2.916-68.38,8.444
	v121.905C314.91,129.842,353.964,73.36,339.194,18.015z"/>
<path style="fill:#FF7876;" d="M326.087,122.769c96.594-13.249,173.064,79.973,141.483,172.023l-43.943,128.08
	c-22.495,65.56-91.249,101.615-156.718,85.169c-7.136-1.791-14.679-1.793-21.815,0c-65.553,16.465-134.249-19.683-156.719-85.17
	L44.431,294.792c-31.647-92.236,45.078-185.238,141.483-172.023C271.751,134.542,241.013,134.437,326.087,122.769"/>
<path style="fill:#FF5E5B;" d="M326.087,122.769c-67.502,9.258-64.377,9.028-70.087,9.028v374.899c3.67,0,7.339,0.448,10.908,1.344
	c65.548,16.467,134.248-19.683,156.718-85.169L467.57,294.79C499.211,202.571,422.503,109.546,326.087,122.769z"/>
</svg>