<?xml version="1.0" encoding="iso-8859-1"?>
<!-- Uploaded to: SVG Repo, www.svgrepo.com, Generator: SVG Repo Mixer Tools -->
<!DOCTYPE svg PUBLIC "-//W3C//DTD SVG 1.1//EN" "http://www.w3.org/Graphics/SVG/1.1/DTD/svg11.dtd">
<svg fill="#000000" height="800px" width="800px" version="1.1" id="Capa_1" xmlns="http://www.w3.org/2000/svg" xmlns:xlink="http://www.w3.org/1999/xlink" 
	 viewBox="0 0 220.721 220.721" xml:space="preserve">
<path d="M199.401,126.342c-2.348,23.011-14.692,41.948-22.068,53.262c-1.641,2.517-3.058,4.69-3.792,6.068
	c-1.355,2.541-2.083,4.749-2.853,7.086c-1.439,4.37-3.071,9.322-8.431,15.507c-6.658,7.683-18.026,12.456-29.668,12.456
	c-3.718,0-7.315-0.489-10.692-1.454c-4.938-1.411-8.713-3.382-11.536-5.351c-2.823,1.968-6.6,3.939-11.536,5.351
	c-3.376,0.965-6.974,1.454-10.692,1.454c-11.641,0-23.009-4.772-29.668-12.456c-5.36-6.185-6.991-11.138-8.431-15.508
	c-0.771-2.337-1.497-4.545-2.853-7.085c-0.733-1.376-2.15-3.549-3.791-6.065c-7.376-11.314-19.722-30.251-22.07-53.265
	c-3.224-31.596,13.656-54.733,46.311-63.479c5.079-1.36,10.094-2.05,14.907-2.05c8.304,0,15.185,2.043,20.651,4.72
	c0.104-4.206-0.407-12.757-4.865-23.738c-4.732-11.656-7.812-15.079-8.538-15.776c-3.048-1.617-4.669-5.188-3.701-8.646
	c1.117-3.988,5.251-6.317,9.245-5.2c5.434,1.521,10.959,9.365,16.893,23.98c0.035,0.085,0.065,0.168,0.099,0.253l0.812-0.773
	c0.631-6.475,4.27-22.413,24.427-31.68C143.265,1.33,149.35,0,155.646,0c16.698,0,29.402,9.422,29.936,9.823
	c1.844,1.388,2.945,3.547,2.987,5.855c0.032,1.807-0.341,18.035-23.237,31.158c-6.377,3.655-13.459,5.508-21.049,5.508
	c-0.001,0-0.002,0-0.003,0c-8.937,0-16.815-2.614-21.879-4.823l-5.343,5.088c0.939,5.168,1.166,9.46,1.13,12.606
	c5.358-2.521,12.02-4.403,19.994-4.403c4.813,0,9.829,0.689,14.907,2.05C185.747,71.609,202.626,94.747,199.401,126.342z"/>
</svg>