<?xml version="1.0" encoding="iso-8859-1"?>
<!-- Uploaded to: SVG Repo, www.svgrepo.com, Generator: SVG Repo Mixer Tools -->
<!DOCTYPE svg PUBLIC "-//W3C//DTD SVG 1.1//EN" "http://www.w3.org/Graphics/SVG/1.1/DTD/svg11.dtd">
<svg fill="#000000" version="1.1" id="Capa_1" xmlns="http://www.w3.org/2000/svg" xmlns:xlink="http://www.w3.org/1999/xlink" 
	 width="800px" height="800px" viewBox="0 0 99.334 99.333"
	 xml:space="preserve">
<g>
	<path d="M95.834,5.13H3.5c-1.93,0-3.5,1.57-3.5,3.5v59c0,0.001,0.002,0.003,0.002,0.005v9.005c0,1.141,0.924,2.063,2.063,2.063
		h36.564c-0.184,4.056-1.082,12.198-5.293,13.983c0,0-1.635,1.517,2.939,1.517h7.83h10.792h7.83c4.571,0,2.938-1.517,2.938-1.517
		c-4.211-1.785-5.108-9.928-5.293-13.983h36.938c1.141,0,2.014-0.923,2.014-2.063v-8.912c0.002-0.033,0.01-0.063,0.01-0.098v-59
		C99.334,6.702,97.764,5.13,95.834,5.13z M47.25,71.63c0-1.334,1.082-2.417,2.418-2.417c1.334,0,2.416,1.082,2.416,2.417
		s-1.082,2.417-2.416,2.417C48.332,74.047,47.25,72.965,47.25,71.63z M96.334,65.293H3V8.63c0-0.276,0.225-0.5,0.5-0.5h92.334
		c0.275,0,0.5,0.224,0.5,0.5V65.293z"/>
</g>
</svg>