<?xml version="1.0" encoding="iso-8859-1"?>
<!-- Uploaded to: SVG Repo, www.svgrepo.com, Generator: SVG Repo Mixer Tools -->
<svg fill="#000000" height="800px" width="800px" version="1.1" id="Layer_1" xmlns="http://www.w3.org/2000/svg" xmlns:xlink="http://www.w3.org/1999/xlink" 
	 viewBox="0 0 511.997 511.997" xml:space="preserve">
<g>
	<g>
		<path d="M424.301,201.272c-30.657-43.673-78.845-68.72-132.204-68.72h-26.538v-0.679c0-27.566,13.657-53.247,36.532-68.702
			c4.376-2.956,5.526-8.899,2.571-13.274c-2.955-4.375-8.897-5.525-13.275-2.571c-13.207,8.923-23.916,20.617-31.564,34.023
			C245.207,34.279,201.25,0,149.436,0c-5.28,0-9.56,4.28-9.56,9.56c0,60.778,47.166,110.746,106.817,115.227
			c-0.163,2.349-0.254,4.71-0.254,7.086v0.679h-26.551c-53.353,0-101.534,25.046-132.19,68.716
			c-30.657,43.672-37.841,97.5-19.711,147.683l32.527,90.011c10.448,28.909,31.597,51.891,59.553,64.709
			c14.534,6.667,30.814,9.386,47.074,7.875c7.924-0.733,15.8-2.467,23.411-5.152c8.201-2.895,16.762-4.363,25.447-4.363
			c4.101,0,8.199,0.328,12.175,0.974c4.552,0.743,9.015,1.883,13.263,3.386c10.57,3.743,21.451,5.606,32.225,5.606
			c13.174,0,26.189-2.786,38.276-8.33c9.219-4.238,17.799-9.656,25.509-16.109c0.105-0.08,0.208-0.163,0.309-0.249
			c8.743-7.351,16.297-15.934,22.449-25.506c4.594-7.147,8.39-14.834,11.28-22.843l32.527-90.011
			C462.141,298.769,454.957,244.943,424.301,201.272z M187.241,77.751c-15.817-15.817-25.462-36.16-27.727-58.106
			c45.146,4.708,81.128,40.688,85.834,85.835C223.399,103.213,203.056,93.566,187.241,77.751z M426.028,342.455L393.5,432.47
			c-2.405,6.664-5.562,13.057-9.381,18.998c-5.049,7.856-11.235,14.912-18.392,20.974c-0.102,0.079-0.203,0.159-0.301,0.243
			c-6.473,5.457-13.699,10.037-21.469,13.609c-17.42,7.99-37.359,8.728-56.142,2.075c-5.319-1.882-10.892-3.305-16.57-4.232
			c-4.993-0.812-10.124-1.222-15.248-1.222c-10.858,0-21.562,1.834-31.81,5.453c-6.126,2.161-12.455,3.555-18.816,4.143
			c-12.933,1.203-25.843-0.945-37.336-6.216c-23.257-10.664-40.851-29.781-49.542-53.828l-32.527-90.011
			c-15.985-44.243-9.65-91.699,17.377-130.201c27.026-38.5,69.504-60.581,116.54-60.581h72.21
			c47.044,0,89.527,22.082,116.554,60.584C435.678,250.758,442.012,298.213,426.028,342.455z"/>
	</g>
</g>
</svg>