<?xml version="1.0" ?><!-- Uploaded to: SVG Repo, www.svgrepo.com, Generator: SVG Repo Mixer Tools -->
<svg fill="#000000" width="800px" height="800px" viewBox="0 0 128 128" id="Layer_1" version="1.1" xml:space="preserve" xmlns="http://www.w3.org/2000/svg" xmlns:xlink="http://www.w3.org/1999/xlink"><path d="M113.581,62.388c-4.225-4.242-10.357-5.547-16.004-3.987c-0.832-5.987-2.969-11.129-6.396-15.278  c-4.996-6.053-12.66-9.253-22.162-9.253c-5.105,0-10.003,0.991-14.301,2.86c0.673-4.24,3.132-15.086,11.084-19.743  c0.477-0.279,0.637-0.892,0.358-1.368c-0.28-0.477-0.895-0.637-1.368-0.357c-2.79,1.634-4.951,3.908-6.628,6.395  c-1.22-3.051-4.228-8.791-10.433-11.785c-5.982-2.887-13.337-2.438-21.86,1.331c-0.463,0.205-0.7,0.724-0.552,1.208  c0.123,0.4,3.104,9.84,11.921,13.831c2.528,1.145,5.264,1.716,8.192,1.716c3.236,0,6.711-0.71,10.398-2.104  c-2.041,4.462-2.866,8.868-3.172,11.058c-4.4-1.984-9.448-3.04-14.708-3.04c-9.712,0-17.437,3.188-22.336,9.219  c-7.203,8.857-6.811,23.021-5.213,33.343c1.782,11.543,6.073,22.617,12.408,32.025C27.882,116.009,34.711,120,42.56,120  c3.929,0,7.694-0.914,10.931-2.647c3.236,1.734,6.998,2.647,10.92,2.647c5.604,0,10.88-2.102,14.85-5.916  c1.234-1.176,2.437-2.508,3.678-4.077c1.08-1.377,2.144-2.905,3.176-4.54l1.726,1.726c0.659,0.66,1.536,1.023,2.469,1.023  c0.932,0,1.809-0.363,2.468-1.023l20.811-20.81c0.04-0.041,0.077-0.086,0.11-0.136c3.137-3.185,4.86-7.4,4.855-11.885  C118.548,69.829,116.781,65.575,113.581,62.388z M38.082,24.425c-6.537-2.95-9.622-9.449-10.543-11.764  c7.586-3.178,14.077-3.513,19.306-0.997c6.295,3.028,9.028,9.445,9.822,11.706C49.525,26.413,43.273,26.769,38.082,24.425z   M81.366,108.77c-1.18,1.491-2.319,2.756-3.488,3.869c-3.6,3.458-8.382,5.361-13.468,5.361c-3.776,0-7.381-0.919-10.424-2.658  c-0.307-0.176-0.686-0.176-0.992,0C49.951,117.081,46.343,118,42.56,118c-9.034,0-14.824-5.796-18.091-10.659  c-6.172-9.166-10.353-19.96-12.091-31.214c-1.536-9.922-1.951-23.488,4.788-31.776c5.695-7.009,14.446-8.48,20.784-8.48  c5.463,0,10.681,1.183,15.087,3.421c0.036,0.018,0.076,0.014,0.114,0.027c0.084,0.031,0.167,0.067,0.261,0.075  c0.021,0.002,0.042,0.002,0.063,0.003c0.023,0,0.045-0.008,0.069-0.009c0.127-0.007,0.246-0.035,0.357-0.086  c0.014-0.006,0.03-0.003,0.044-0.01c4.396-2.238,9.608-3.421,15.075-3.421c6.196,0,14.803,1.479,20.62,8.526  c3.26,3.947,5.27,8.884,6.012,14.666c-1.905,0.768-3.722,1.868-5.345,3.319c-6.846-6.126-17.097-6.193-23.271,0.003  c-3.203,3.19-4.97,7.444-4.974,11.977c-0.005,4.485,1.719,8.701,4.855,11.886c0.035,0.052,0.075,0.101,0.117,0.143l17.626,17.626  C83.592,105.739,82.486,107.341,81.366,108.77z M112.189,84.927c-0.044,0.044-0.084,0.092-0.119,0.144l-20.709,20.708  c-0.565,0.563-1.545,0.563-2.108,0L68.545,85.071c-0.035-0.051-0.075-0.1-0.12-0.145c-2.817-2.817-4.366-6.568-4.362-10.563  c0.004-3.998,1.562-7.749,4.389-10.565c5.613-5.634,15.101-5.337,21.151,0.666c0.389,0.387,1.02,0.387,1.408,0  c6.052-6.002,15.541-6.301,21.155-0.663c2.824,2.813,4.382,6.564,4.386,10.562C116.556,78.358,115.007,82.11,112.189,84.927z"/></svg>