<?xml version="1.0" encoding="iso-8859-1"?>
<!-- Uploaded to: SVG Repo, www.svgrepo.com, Generator: SVG Repo Mixer Tools -->
<svg fill="#000000" height="800px" width="800px" version="1.1" id="Layer_1" xmlns="http://www.w3.org/2000/svg" xmlns:xlink="http://www.w3.org/1999/xlink" 
	 viewBox="0 0 512.003 512.003" xml:space="preserve">
<g>
	<g>
		<path d="M423.321,198.755c0-47.381-20.222-92.737-55.479-124.44c-20.244-18.202-49.957-21.965-73.933-9.363
			c-4.685,2.462-9.529,4.432-14.507,5.921l17.322-49.878c2.864-8.247-1.5-17.253-9.746-20.117
			c-8.244-2.862-17.252,1.501-20.117,9.746l-21.848,62.912c-9.402-1.252-18.42-4.118-26.918-8.584
			c-23.976-12.599-53.688-8.837-73.933,9.365c-35.909,32.288-56.124,78.497-55.464,126.779
			c0.608,44.362,18.267,85.874,49.725,116.891c21.575,21.272,47.999,35.986,76.789,43.132v110.094
			c0,22.491,18.299,40.79,40.79,40.79c22.491,0,40.79-18.299,40.79-40.79V361.036c67.792-17.046,119.28-75.561,125.816-146.89
			c0.72-2.318,0.883-4.768,0.51-7.152C423.25,204.264,423.321,201.518,423.321,198.755z M265.179,471.21
			c0,5.06-4.117,9.177-9.177,9.177c-5.06,0-9.177-4.117-9.177-9.177V365.822c3.045,0.163,6.104,0.253,9.178,0.253
			c3.079,0,6.137-0.09,9.176-0.255V471.21z M256.003,334.462c-53.508,0-99.153-29.87-121.332-74.198
			c3.25,0.591,6.569,0.901,9.926,0.901c13.561,0,26.526-4.948,36.636-13.934c3.403,5.081,7.413,9.792,11.996,14.014
			c14.405,13.27,33.129,20.578,52.727,20.578c19.597,0,38.322-7.309,52.727-20.578c7.272-6.7,13.125-14.618,17.345-23.323
			c9.03,5.911,20.74,11.173,34.665,12.266c11.103,0.874,22.118-0.941,32.973-5.399C364.772,297.027,314.679,334.462,256.003,334.462
			z M391.651,202.588c-13.215,11.551-26.068,16.979-38.246,16.099c-19.556-1.403-32.888-18.578-32.959-18.669
			c-3.868-5.351-10.596-7.652-16.954-5.895c-6.364,1.756-10.904,7.365-11.481,13.94c-2.072,23.633-22.302,42.144-46.056,42.144
			s-43.983-18.511-46.056-42.145c-0.726-8.286-7.738-14.5-15.905-14.41c-8.172-0.095-15.186,6.123-15.911,14.411
			c-1.056,12.049-11.373,21.487-23.487,21.487s-22.431-9.439-23.487-21.487c-0.103-1.178-0.344-2.31-0.685-3.393
			c-0.056-1.331-0.098-2.667-0.116-4.009c-0.536-39.164,15.862-76.648,44.99-102.839c6.348-5.709,14.485-8.675,22.658-8.675
			c5.288,0,10.59,1.242,15.432,3.787c16.067,8.443,34.202,12.916,52.457,12.941c0.053,0,0.105,0.006,0.157,0.006
			c0.058,0,0.116-0.006,0.174-0.006c18.247-0.028,36.375-4.5,52.437-12.941c12.328-6.476,27.636-4.513,38.089,4.887
			c28.601,25.716,45.004,62.504,45.004,100.931C391.707,200.037,391.685,201.314,391.651,202.588z"/>
	</g>
</g>
</svg>