<?xml version="1.0" encoding="iso-8859-1"?>
<!-- Uploaded to: SVG Repo, www.svgrepo.com, Generator: SVG Repo Mixer Tools -->
<svg fill="#000000" height="800px" width="800px" version="1.1" id="Layer_1" xmlns="http://www.w3.org/2000/svg" xmlns:xlink="http://www.w3.org/1999/xlink" 
	 viewBox="0 0 513.048 513.048" xml:space="preserve">
<g transform="translate(1)">
	<g>
		<g>
			<path d="M431.311,264.728c-2.92-61.327-45.82-110.78-103.042-123.787c20.485-7.198,50.468-4.064,92.802,29.067
				c1.707,0.853,3.413,1.707,5.12,1.707s3.413-0.853,5.12-3.413c3.413-1.707,4.267-5.973,3.413-9.387
				c-0.853-2.56-22.187-71.68-72.533-87.04c-10.24-2.56-19.627-3.413-29.867-2.56c15.36-10.24,31.573-18.773,46.08-17.92
				c10.24,0.853,17.92,5.12,24.747,13.653c2.56,3.413,7.68,4.267,11.093,1.707s4.267-6.827,2.56-11.093
				c-0.853-1.707-26.453-46.933-76.8-54.613c-40.107-5.973-83.627,13.653-128.853,57.173c-22.187-11.093-43.52-11.947-64-4.267
				c-48.64,19.627-69.973,86.187-70.827,88.747c-0.853,3.413,0,6.827,3.413,9.387s7.68,2.56,10.24,0
				c33.28-25.6,62.293-35.84,86.187-30.72c14.134,3.298,24.098,11.535,30.196,18.255C145.74,150.228,98.981,201.084,95.951,264.728
				l-2.56,69.12c-2.56,46.933,14.507,92.16,46.933,126.293c32.427,34.133,76.8,52.907,123.733,52.907s91.307-18.773,123.733-52.907
				c32.427-34.133,49.493-79.36,46.933-126.293L431.311,264.728z M226.511,137.581c-5.973-8.533-20.48-26.453-46.08-32.427
				c-23.04-5.12-48.64,0.853-75.947,17.067c10.24-18.773,26.453-42.667,49.493-51.2c16.213-6.827,34.987-5.12,54.613,5.973
				c3.413,1.707,7.68,0.853,10.24-1.707c43.52-42.667,82.773-61.44,118.613-56.32c15.36,1.707,27.307,8.533,37.547,16.213
				c-34.133,0.853-70.827,33.28-100.693,61.44c-2.56,3.413-3.413,8.533,0,11.947s8.533,3.413,11.947,0.853
				c25.6-19.627,49.493-27.307,69.973-20.48c23.893,7.68,40.107,31.573,50.347,50.347c-23.893-13.653-43.52-18.773-59.733-18.773
				c-21.333,0-36.693,8.533-46.933,17.067h-1.707h-68.267H226.511z M374.991,448.195c-29.013,30.72-68.267,47.787-110.933,47.787
				s-81.92-17.067-110.933-46.933c-29.867-31.573-44.373-71.68-42.667-114.347l2.56-69.12
				c3.413-62.293,54.613-110.933,116.907-110.933h69.12c62.293,0,113.493,48.64,116.053,110.933l2.56,68.267
				C419.364,376.515,404.004,417.475,374.991,448.195z"/>
			<path d="M194.937,239.981c4.267,5.12,11.093,8.533,17.92,8.533s13.653-3.413,17.92-8.533l11.947-16.213
				c3.413-5.12,4.267-11.093,1.707-17.067c-2.56-5.973-8.533-9.387-14.507-9.387h-34.987c-5.973,0-11.947,3.413-14.507,9.387
				c-3.413,5.12-2.56,11.947,1.707,17.067L194.937,239.981z M229.071,214.381l-11.947,15.36c-1.707,1.707-3.413,1.707-4.267,1.707
				s-2.56,0-4.267-1.707l-12.8-15.36H229.071z"/>
			<path d="M297.337,239.981c4.267,5.12,11.093,8.533,17.92,8.533s13.653-3.413,17.92-8.533l11.947-16.213
				c3.413-5.12,4.267-11.093,1.707-17.067c-2.56-5.973-8.533-9.387-14.507-9.387h-34.987c-5.973,0-11.947,3.413-14.507,9.387
				c-3.413,5.12-2.56,11.947,1.707,17.067L297.337,239.981z M331.471,214.381l-11.947,15.36c-1.707,1.707-3.413,1.707-4.267,1.707
				s-2.56,0-4.267-1.707l-12.8-15.36H331.471z"/>
			<path d="M191.524,326.168c3.413-5.12,4.267-11.093,1.707-17.067s-8.533-9.387-14.507-9.387h-34.987
				c-5.973,0-11.093,4.267-14.507,9.387s-2.56,11.947,1.707,17.067l12.8,16.213c4.267,5.12,11.093,8.533,17.92,8.533
				c6.827,0,13.653-3.413,17.92-8.533L191.524,326.168z M165.924,332.141c-1.707,1.707-3.413,1.707-4.267,1.707s-2.56,0-4.267-1.707
				l-12.8-15.36h33.28L165.924,332.141z"/>
			<path d="M293.924,326.168c3.413-5.12,4.267-11.093,1.707-17.067s-8.533-9.387-14.507-9.387h-34.987
				c-5.973,0-11.947,3.413-14.507,9.387c-3.413,5.12-2.56,11.947,1.707,17.067l12.8,16.213c4.267,5.12,11.093,8.533,17.92,8.533
				s13.653-3.413,17.92-8.533L293.924,326.168z M268.324,332.141c-1.707,1.707-3.413,1.707-4.267,1.707s-2.56,0-4.267-1.707
				l-12.8-15.36h33.28L268.324,332.141z"/>
			<path d="M383.524,299.715h-34.987c-5.973,0-11.947,3.413-14.507,9.387c-3.413,5.12-2.56,11.947,1.707,17.067l12.8,16.213
				c4.267,5.12,11.093,8.533,17.92,8.533s13.653-3.413,17.92-8.533l11.947-16.213c3.413-5.12,4.267-11.093,1.707-17.067
				S389.497,299.715,383.524,299.715z M370.724,332.141c-1.707,1.707-3.413,1.707-4.267,1.707s-2.56,0-4.267-1.707l-12.8-15.36
				h33.28L370.724,332.141z"/>
			<path d="M229.924,402.115h-34.987c-5.973,0-11.093,4.267-14.507,9.387c-3.413,5.12-2.56,11.947,1.707,17.067l12.8,16.213
				c4.267,5.12,11.093,8.533,17.92,8.533s13.653-3.413,17.92-8.533l11.947-16.213c3.413-5.12,4.267-11.093,1.707-17.067
				S235.897,402.115,229.924,402.115z M217.124,434.541c-1.707,1.707-3.413,1.707-4.267,1.707s-2.56,0-4.267-1.707l-12.8-15.36
				h33.28L217.124,434.541z"/>
			<path d="M332.324,402.115h-34.987c-5.973,0-11.947,3.413-14.507,9.387c-3.413,5.12-2.56,11.947,1.707,17.067l12.8,16.213
				c4.267,5.12,11.093,8.533,17.92,8.533s13.653-3.413,17.92-8.533l11.947-16.213c3.413-5.12,4.267-11.093,1.707-17.067
				C344.271,405.528,338.297,402.115,332.324,402.115z M319.524,434.541c-1.707,1.707-3.413,1.707-4.267,1.707s-2.56,0-4.267-1.707
				l-12.8-15.36h33.28L319.524,434.541z"/>
		</g>
	</g>
</g>
</svg>