<?xml version="1.0" encoding="iso-8859-1"?>
<!-- Uploaded to: SVG Repo, www.svgrepo.com, Generator: SVG Repo Mixer Tools -->
<svg height="800px" width="800px" version="1.1" id="Layer_1" xmlns="http://www.w3.org/2000/svg" xmlns:xlink="http://www.w3.org/1999/xlink" 
	 viewBox="0 0 512 512" xml:space="preserve">
<path style="fill:#00A653;" d="M336.528,157.086c-16.427,14.064-36.558,13.577-45.868,11.075l-2.927-0.791l-2.432-1.828
	c-7.687-5.802-20.445-21.381-19.447-42.983c1.304-28.369,25.085-57.059,70.679-85.276l21.146-13.085l2.676,24.721
	C366.117,102.229,358.104,138.62,336.528,157.086z"/>
<path style="fill:#008040;" d="M336.528,157.086c-16.427,14.064-36.558,13.577-45.868,11.075l-2.927-0.791l69.944-143.172
	l2.676,24.721C366.117,102.229,358.104,138.62,336.528,157.086z"/>
<path style="fill:#00A653;" d="M246.107,121.616c1.354,21.582-11.145,37.371-18.745,43.304l-2.392,1.863l-2.923,0.843
	c-9.258,2.651-29.378,3.47-46.035-10.321c-21.879-18.107-30.492-54.362-25.607-107.758l2.268-24.762l21.359,12.734
	C220.084,64.979,244.336,93.272,246.107,121.616z"/>
<path style="fill:#008040;" d="M246.107,121.616c1.354,21.582-11.145,37.371-18.745,43.304l-2.392,1.863L152.672,24.785
	l21.359,12.734C220.084,64.979,244.336,93.272,246.107,121.616z"/>
<path style="fill:#00A653;" d="M295.428,128.684c-8.587,19.847-26.888,28.246-36.352,30.084l-2.977,0.575l-2.988-0.575
	c-9.454-1.839-27.755-10.237-36.342-30.084c-11.282-26.063-2.507-62.279,26.073-107.646L256.099,0l13.256,21.038
	C297.935,66.405,306.71,102.621,295.428,128.684z"/>
<path style="fill:#008040;" d="M295.428,128.684c-8.587,19.847-26.888,28.246-36.352,30.084l-2.977,0.575V0l13.256,21.038
	C297.935,66.405,306.71,102.621,295.428,128.684z"/>
<path style="fill:#FFB74D;" d="M398.708,349.262c-1.243,12.629-3.29,25.227-6.205,37.512c-6.581,27.755-17.643,53.954-34.252,75.41
	c-3.687,4.753-7.584,9.182-11.689,13.277c-7.657,7.646-16.014,14.133-25.018,19.419c-19.189,11.282-41.251,17.111-65.444,17.121
	h-0.094c-25.175,0-48.052-6.288-67.784-18.469c-8.848-5.453-17.058-12.086-24.548-19.868c-3.468-3.583-6.769-7.417-9.913-11.48
	c-17.184-22.187-28.424-49.451-34.921-78.261c-2.8-12.42-4.722-25.133-5.85-37.856c-1.577-17.643-1.63-35.307-0.428-52.23
	c0.961-13.444,2.706-26.428,5.129-38.556c0.992-4.951,2.089-9.767,3.29-14.415c8.869-34.284,25.77-57.453,43.884-73.07
	c8.848-7.636,17.978-13.465,26.606-17.904c2.611-1.348,5.171-2.559,7.667-3.667c28.726-12.702,54.424-12.953,56.868-12.953h0.094
	c2.967,0.031,28.371,0.397,56.774,12.953c1.734,0.763,3.499,1.588,5.286,2.465c8.691,4.283,17.998,9.955,27.055,17.466
	c18.834,15.638,36.624,39.214,45.806,74.71c0.961,3.729,1.859,7.573,2.695,11.501c2.528,11.992,4.387,24.861,5.474,38.222
	C400.724,309.504,400.692,329.425,398.708,349.262z"/>
<path style="fill:#FF9A00;" d="M398.708,349.262c-1.243,12.629-3.29,25.227-6.205,37.512c-6.581,27.755-17.643,53.954-34.252,75.41
	c-3.687,4.753-7.584,9.182-11.689,13.277c-7.657,7.646-16.014,14.133-25.018,19.419c-19.189,11.282-41.251,17.111-65.444,17.121
	V133.27c2.967,0.031,28.371,0.397,56.774,12.953c1.734,0.763,3.499,1.588,5.286,2.465c8.691,4.283,17.998,9.955,27.055,17.466
	c18.834,15.638,36.624,39.214,45.806,74.71c0.961,3.729,1.859,7.573,2.695,11.501c2.528,11.992,4.387,24.861,5.474,38.222
	C400.724,309.504,400.692,329.425,398.708,349.262z"/>
<path style="fill:#9A4C00;" d="M399.188,290.587c-1.086-13.36-2.946-26.23-5.474-38.222l-47.864,46.046l-69.069-66.437l68.432-65.82
	c-9.057-7.511-18.364-13.183-27.055-17.466l-62.06,59.699l-1.912,1.838L191.47,149.89c-8.628,4.44-17.758,10.268-26.606,17.904
	l66.719,64.18l-69.058,66.437l-44.834-43.132c-2.423,12.128-4.168,25.112-5.129,38.556l27.358,26.313l-26.93,25.917
	c1.128,12.723,3.05,25.436,5.85,37.856l43.685-42.024l69.058,66.437l-67.909,65.329c7.49,7.782,15.7,14.415,24.548,19.868
	l65.966-63.449l1.912,1.839l65.444,62.958c9.004-5.286,17.361-11.773,25.018-19.419l-69.779-67.126l69.069-66.437l46.652,44.876
	c2.914-12.284,4.962-24.882,6.205-37.512l-30.252-29.113L399.188,290.587z M256.099,384.757l-1.912,1.839l-69.069-66.447
	l69.069-66.437l1.912,1.838l67.147,64.598L256.099,384.757z"/>
<path style="fill:#723700;" d="M368.456,320.149l30.252,29.113c-1.243,12.629-3.29,25.227-6.205,37.512l-46.652-44.876
	l-69.069,66.437l69.779,67.126c-7.657,7.646-16.014,14.133-25.018,19.419l-65.444-62.958v-47.164l67.147-64.608l-67.147-64.598
	v-47.164l62.06-59.699c8.691,4.283,17.998,9.955,27.055,17.466l-68.432,65.82l69.069,66.437l47.864-46.046
	c2.528,11.992,4.387,24.861,5.474,38.222L368.456,320.149z"/>
</svg>